<?xml version="1.0" standalone="no"?>
<!DOCTYPE svg PUBLIC "-//W3C//DTD SVG 20010904//EN"
 "http://www.w3.org/TR/2001/REC-SVG-20010904/DTD/svg10.dtd">
<svg version="1.0" xmlns="http://www.w3.org/2000/svg"
 width="400.000000pt" height="400.000000pt" viewBox="0 0 400.000000 400.000000"
 preserveAspectRatio="xMidYMid meet">
<metadata>
Created by potrace 1.14, written by Peter Selinger 2001-2017
</metadata>
<g transform="translate(0.000000,400.000000) scale(0.100000,-0.100000)"
fill="#000000" stroke="none">
<path d="M2520 3618 c0 -14 7 -31 15 -38 13 -11 13 -8 3 21 -15 44 -18 48 -18
17z"/>
<path d="M2461 3604 c0 -11 3 -14 6 -6 3 7 2 16 -1 19 -3 4 -6 -2 -5 -13z"/>
<path d="M3867 2830 c-26 -17 -45 -35 -42 -40 3 -6 -4 -10 -17 -10 -18 0 -13
-5 20 -20 23 -10 42 -25 42 -32 0 -27 39 -48 85 -46 l45 1 0 83 c0 65 -3 83
-16 88 -33 13 -71 5 -117 -24z"/>
<path d="M2485 2643 c-70 -147 -71 -148 -57 -139 13 8 42 -65 43 -112 1 -20 8
15 15 78 8 63 25 155 39 205 13 49 23 90 22 91 -1 1 -29 -55 -62 -123z"/>
<path d="M3430 2590 c0 -16 2 -30 4 -30 2 0 6 14 8 30 3 17 1 30 -4 30 -4 0
-8 -13 -8 -30z"/>
<path d="M1535 2593 c6 -6 35 -24 66 -41 32 -17 70 -38 85 -48 27 -17 28 -17
15 -1 -8 10 -41 33 -75 52 -68 38 -107 54 -91 38z"/>
<path d="M1851 2514 c-12 -27 -11 -28 4 -12 10 9 16 21 13 28 -2 7 -10 -1 -17
-16z"/>
<path d="M2249 2443 c-40 -87 -50 -113 -44 -113 7 0 41 70 64 129 27 73 16 63
-20 -16z"/>
<path d="M1310 2357 c0 -4 7 -10 15 -14 10 -3 15 -16 14 -32 -1 -14 -1 -51 1
-81 l2 -55 10 45 c9 42 32 80 48 80 4 0 24 -7 44 -15 l37 -16 -24 -32 c-26
-35 -47 -99 -47 -140 0 -20 6 -28 23 -33 14 -3 31 -20 40 -39 9 -18 25 -36 37
-40 18 -6 19 -9 8 -22 -11 -14 -9 -15 20 -9 39 9 42 -6 10 -42 l-23 -25 28 18
c16 10 38 39 50 64 11 25 26 49 31 53 6 4 11 38 11 76 0 60 -4 75 -35 126 -21
35 -56 75 -87 98 -51 39 -56 40 -133 42 -44 0 -80 -3 -80 -7z m209 -187 c3
-25 3 -25 -18 -6 -26 23 -27 39 -3 34 9 -2 19 -14 21 -28z m81 -180 c0 -5 -4
-10 -9 -10 -6 0 -13 5 -16 10 -3 6 1 10 9 10 9 0 16 -4 16 -10z"/>
<path d="M3402 2325 c0 -16 2 -22 5 -12 2 9 2 23 0 30 -3 6 -5 -1 -5 -18z"/>
<path d="M2305 2230 c11 -5 27 -9 35 -9 9 0 8 4 -5 9 -11 5 -27 9 -35 9 -9 0
-8 -4 5 -9z"/>
<path d="M2400 2200 c8 -5 22 -9 30 -9 10 0 8 3 -5 9 -27 12 -43 12 -25 0z"/>
<path d="M2470 2176 c28 -17 50 -21 35 -7 -6 5 -21 12 -35 15 l-25 7 25 -15z"/>
<path d="M2581 2119 c29 -22 40 -24 33 -5 -3 8 -17 16 -32 19 l-26 5 25 -19z"/>
<path d="M3845 2130 c4 -7 -2 -14 -14 -17 -12 -3 -21 -12 -21 -19 0 -18 0 -18
-51 6 -64 29 -88 27 -86 -7 2 -24 -2 -28 -24 -26 -22 1 -25 -3 -26 -32 -1 -19
-4 -38 -8 -44 -9 -16 -47 -13 -75 6 -19 13 -22 13 -13 2 7 -8 11 -24 9 -35 -2
-10 -1 -13 1 -6 7 20 30 14 37 -10 3 -13 6 -60 6 -106 0 -46 4 -81 9 -78 4 3
16 -12 26 -33 21 -47 83 -108 148 -145 54 -31 166 -66 210 -66 l28 0 -3 72 -3
73 -47 25 c-68 37 -71 45 -8 21 30 -12 56 -21 58 -21 1 0 2 37 2 82 0 69 -3
85 -21 104 l-21 22 21 7 c20 6 21 14 21 121 l0 114 -37 0 c-22 0 -33 -4 -26
-8 8 -5 9 -13 3 -22 -8 -12 -16 -11 -55 8 -26 12 -43 18 -40 12z"/>
<path d="M2742 2080 c0 -14 2 -19 5 -12 2 6 2 18 0 25 -3 6 -5 1 -5 -13z"/>
<path d="M1404 2022 c2 -9 7 -38 11 -64 4 -35 12 -51 28 -59 21 -12 21 -11 5
8 -24 26 -25 105 -2 96 12 -4 15 -1 12 13 -2 12 -13 19 -31 21 -22 1 -27 -2
-23 -15z"/>
<path d="M1216 2011 c-17 -18 -17 -21 -3 -15 21 8 21 6 -3 -56 -11 -27 -16
-50 -12 -50 12 0 44 96 40 121 l-3 21 -19 -21z"/>
<path d="M2185 2025 c22 -7 169 -12 150 -4 -11 4 -51 8 -90 8 -38 -1 -65 -2
-60 -4z"/>
<path d="M2156 1971 c-4 -5 -1 -11 6 -13 6 -2 -5 -15 -26 -27 -20 -13 -36 -25
-34 -27 2 -1 30 1 63 5 50 7 158 -2 174 -15 2 -2 -15 -22 -38 -46 -45 -47 -76
-105 -86 -161 -6 -30 -4 -37 8 -37 9 0 18 8 20 18 4 13 5 13 6 -4 1 -18 7 -21
40 -21 23 0 46 -7 56 -17 9 -9 21 -16 26 -16 5 0 14 -11 19 -25 12 -31 36 -32
68 -2 14 12 22 17 19 11 -4 -6 2 -19 12 -28 16 -15 19 -14 47 16 35 40 54 74
54 99 0 29 15 22 36 -17 l19 -35 -53 -51 c-44 -42 -49 -49 -28 -44 14 3 49 20
76 36 28 17 56 27 62 24 7 -5 8 -2 3 6 -4 7 -2 16 5 20 16 10 -6 52 -73 143
-58 80 -123 132 -224 180 -63 30 -81 34 -161 36 -50 1 -93 -3 -96 -8z m221
-177 c2 -5 -3 -19 -11 -29 -14 -19 -15 -19 -21 -2 -4 9 -4 24 -1 33 6 16 27
15 33 -2z"/>
<path d="M3522 1795 c0 -16 2 -22 5 -12 2 9 2 23 0 30 -3 6 -5 -1 -5 -18z"/>
<path d="M3530 1735 c-4 -54 1 -118 12 -144 6 -14 12 -35 14 -46 12 -63 19
-82 37 -100 18 -17 20 -17 14 -2 -4 10 -9 75 -13 145 -4 97 -3 123 6 112 9
-12 10 -10 5 10 -20 72 -32 24 -27 -105 l2 -50 -20 49 c-11 27 -18 52 -16 55
2 3 0 29 -4 56 -5 37 -8 42 -10 20z m54 -201 c3 -8 2 -12 -4 -9 -6 3 -10 10
-10 16 0 14 7 11 14 -7z"/>
<path d="M3022 1713 c-7 -12 -12 -42 -12 -66 0 -55 -10 -107 -20 -107 -4 0
-11 15 -14 34 -10 55 -28 48 -65 -23 -19 -36 -28 -61 -20 -55 8 6 35 14 60 17
26 4 58 12 73 18 25 12 26 16 25 83 -1 39 -4 82 -8 96 l-7 25 -12 -22z m-62
-168 c10 -12 10 -15 -4 -15 -9 0 -16 7 -16 15 0 8 2 15 4 15 2 0 9 -7 16 -15z"/>
<path d="M2966 1675 c-9 -26 -7 -32 5 -12 6 10 9 21 6 23 -2 3 -7 -2 -11 -11z"/>
<path d="M3506 1573 c-3 -25 -6 -69 -6 -97 l0 -51 21 39 c17 32 20 49 14 93
-8 68 -21 75 -29 16z"/>
<path d="M2205 1588 c28 -93 118 -122 228 -74 33 14 37 19 26 32 -7 8 -15 11
-18 6 -13 -20 -77 -52 -104 -52 -56 0 -97 34 -97 80 0 10 -7 21 -16 24 -24 9
-26 8 -19 -16z"/>
<path d="M1530 1392 c0 -36 8 -44 31 -31 18 9 18 11 3 34 -21 33 -34 32 -34
-3z"/>
<path d="M2970 1367 c0 -7 7 -22 15 -33 13 -17 14 -16 4 14 -11 33 -19 41 -19
19z"/>
<path d="M3346 1351 c-4 -7 -5 -15 -2 -18 9 -9 19 4 14 18 -4 11 -6 11 -12 0z"/>
<path d="M3478 1317 c-4 -22 -1 -53 6 -75 7 -20 16 -54 20 -74 4 -21 13 -52
22 -70 l14 -33 -6 50 c-3 28 -12 73 -19 100 -8 28 -18 70 -23 95 l-8 45 -6
-38z"/>
<path d="M3266 1308 c-9 -12 -16 -30 -16 -40 0 -30 19 -30 35 1 28 54 13 85
-19 39z"/>
<path d="M3383 1230 c0 -25 2 -35 4 -22 2 12 2 32 0 45 -2 12 -4 2 -4 -23z"/>
<path d="M858 1152 l-88 -89 0 -97 c0 -54 5 -106 10 -117 8 -14 7 -19 -3 -19
-13 0 -28 23 -40 60 -4 11 -6 10 -6 -3 -1 -10 4 -27 9 -38 10 -19 4 -19 -323
-19 -246 0 -336 -3 -345 -12 -9 -9 -12 -107 -12 -379 0 -325 2 -368 16 -373 9
-3 94 -6 190 -6 l175 0 -15 -22 c-21 -30 -20 -38 4 -38 11 0 20 4 20 8 0 15
43 54 49 44 3 -5 25 -12 47 -15 32 -5 43 -3 48 8 3 8 12 15 21 15 18 0 19 -5
5 -31 -6 -10 -7 -19 -2 -19 5 0 14 11 20 25 12 26 30 34 29 13 -1 -46 2 -49
53 -47 50 3 51 3 45 31 -7 28 -6 28 44 28 27 0 53 5 56 10 8 13 7 723 -1 744
-3 9 -17 16 -30 16 -13 0 -24 5 -24 10 0 6 11 10 25 10 18 0 29 8 37 28 6 15
17 43 25 62 39 96 66 121 114 103 24 -10 29 -8 34 8 11 35 32 21 39 -26 9 -57
18 -62 41 -22 28 50 65 85 97 92 25 6 27 9 16 22 -7 9 -11 17 -8 19 3 1 -16
20 -41 43 -35 31 -57 42 -88 45 -23 2 -44 6 -48 10 -3 3 -29 6 -56 6 -50 0
-51 -1 -139 -88z m-26 -473 c3 -59 3 -212 0 -340 l-7 -234 -354 -3 c-195 -1
-358 1 -363 6 -9 9 -12 658 -3 672 4 7 137 9 363 8 l357 -3 7 -106z m-105
-625 c-3 -3 -12 -4 -19 -1 -8 3 -5 6 6 6 11 1 17 -2 13 -5z"/>
<path d="M120 724 c0 -25 6 -51 13 -59 7 -7 19 -39 27 -71 l13 -59 16 65 c13
52 20 66 37 68 18 3 23 -5 33 -42 6 -25 11 -55 11 -67 0 -38 16 -8 29 54 11
50 15 57 37 57 13 0 24 -3 24 -7 -1 -5 -13 -53 -28 -108 -25 -91 -30 -100 -53
-103 -23 -3 -26 2 -39 60 l-13 63 -15 -62 c-12 -55 -17 -63 -37 -63 -23 0 -33
18 -48 85 -3 11 -5 -78 -6 -197 l-1 -218 345 0 345 0 0 165 c0 125 -3 165 -12
166 -7 1 -27 0 -44 -1 -40 -2 -64 29 -64 81 0 35 -12 49 -41 49 -5 0 -9 -20
-9 -44 0 -29 -7 -52 -20 -67 -21 -27 -22 -24 -20 43 1 25 -4 55 -11 66 -10 16
-10 26 -2 44 6 13 14 31 17 40 3 11 18 18 42 20 31 2 43 -2 67 -27 28 -27 30
-35 28 -92 -2 -62 -2 -63 23 -63 25 0 26 2 26 60 0 33 4 60 10 60 6 0 10 32
10 75 l0 75 -345 0 -345 0 0 -46z m448 -61 c-2 -10 -13 -19 -26 -21 -17 -3
-22 2 -22 17 0 16 6 21 26 21 19 0 25 -5 22 -17z m-78 -62 c5 -11 10 -49 10
-85 l0 -64 -60 -1 c-52 0 -62 3 -75 23 -24 37 -7 68 46 82 l44 12 -42 1 c-39
1 -43 3 -43 26 0 24 3 25 55 25 43 0 56 -4 65 -19z m78 -63 c-3 -77 -5 -83
-25 -86 -22 -3 -23 -1 -23 82 0 85 0 86 25 86 26 0 26 0 23 -82z m150 -110
l27 -10 -26 -10 c-14 -5 -32 -20 -39 -34 l-14 -25 -24 31 c-13 16 -30 30 -38
30 -8 0 -14 5 -14 10 0 6 7 10 15 10 8 0 24 14 37 30 l22 31 14 -26 c7 -14 25
-31 40 -37z m-168 -21 c0 -32 1 -33 33 -29 50 6 67 -17 67 -87 0 -36 -5 -63
-13 -69 -7 -6 -41 -11 -75 -11 l-62 1 0 107 c0 59 3 111 7 114 3 4 15 7 25 7
14 0 18 -8 18 -33z m-320 -66 l0 -80 48 -3 c42 -3 49 0 64 25 14 21 25 27 53
27 19 0 35 5 35 10 0 6 -18 10 -40 10 -36 0 -40 3 -40 25 0 23 3 25 49 25 65
0 81 -21 81 -106 l0 -61 -52 -5 c-39 -4 -57 -12 -72 -29 l-20 -24 -27 28 c-23
22 -36 27 -78 27 l-51 0 0 105 0 105 25 0 c25 0 25 -1 25 -79z m570 14 c0 -22
-4 -25 -40 -25 -22 0 -40 -4 -40 -10 0 -5 13 -10 29 -10 37 0 53 -20 49 -62
-3 -33 -3 -33 -60 -36 -56 -3 -58 -2 -58 23 0 19 5 25 21 25 21 0 21 1 -5 25
-30 28 -32 42 -10 73 12 18 25 22 65 22 46 0 49 -2 49 -25z"/>
<path d="M408 528 c-17 -17 -17 -19 0 -36 18 -18 20 -18 39 -2 l21 16 -22 20
c-20 19 -22 20 -38 2z"/>
<path d="M550 295 c0 -32 2 -35 30 -35 28 0 30 3 30 35 0 32 -2 35 -30 35 -28
0 -30 -3 -30 -35z"/>
<path d="M403 273 c-31 -6 -29 -23 2 -23 16 0 25 6 25 15 0 8 -1 14 -2 14 -2
-1 -13 -4 -25 -6z"/>
<path d="M321 216 c-18 -21 15 -44 34 -25 13 13 12 16 -4 26 -15 10 -22 9 -30
-1z"/>
<path d="M735 271 c-7 -12 12 -24 25 -16 11 7 4 25 -10 25 -5 0 -11 -4 -15 -9z"/>
<path d="M658 643 c-15 -15 -15 -17 5 -34 20 -16 24 -16 40 -2 16 15 16 17 1
35 -20 21 -24 21 -46 1z"/>
<path d="M2960 1200 c-30 -16 -51 -29 -47 -30 10 0 107 49 107 55 0 7 1 7 -60
-25z"/>
<path d="M3222 1213 c-2 -27 -19 -66 -49 -115 -17 -27 -19 -36 -8 -31 29 11
67 89 62 130 -2 21 -4 28 -5 16z"/>
<path d="M2937 1122 l-98 -37 33 -11 c24 -8 34 -18 39 -41 7 -37 18 -55 28
-48 5 2 14 -17 22 -43 12 -42 46 -112 54 -112 2 0 -3 17 -12 37 -14 36 -14 38
7 55 12 10 28 18 35 18 7 0 24 -35 39 -77 17 -53 24 -65 20 -38 -10 69 -14 87
-30 124 l-15 36 -17 -21 c-9 -12 -27 -25 -39 -29 -19 -5 -23 -2 -25 17 -2 39
2 72 14 102 10 25 13 26 18 10 5 -14 11 -7 23 31 19 54 20 65 10 64 -5 0 -52
-17 -106 -37z"/>
<path d="M2636 1111 c-12 -5 -15 -10 -9 -14 6 -4 26 0 44 8 31 13 32 14 9 14
-14 0 -34 -4 -44 -8z"/>
<path d="M2613 1058 c-15 -20 -25 -38 -20 -38 3 0 12 11 21 25 17 26 16 35 -1
13z"/>
<path d="M3541 1034 c0 -11 3 -14 6 -6 3 7 2 16 -1 19 -3 4 -6 -2 -5 -13z"/>
<path d="M1492 1024 c10 -10 20 -16 22 -13 3 3 -5 11 -17 18 -21 13 -21 12 -5
-5z"/>
<path d="M2820 1019 c0 -11 5 -17 10 -14 6 3 10 13 10 21 0 8 -4 14 -10 14 -5
0 -10 -9 -10 -21z"/>
<path d="M3307 1002 c-27 -29 -33 -42 -19 -42 10 0 55 60 50 66 -3 2 -17 -9
-31 -24z"/>
<path d="M1370 990 c0 -13 5 -18 15 -14 12 5 13 10 4 20 -15 19 -19 18 -19 -6z"/>
<path d="M1543 1003 c3 -5 7 -32 8 -60 2 -49 4 -52 38 -67 20 -8 47 -18 60
-22 22 -6 23 -4 17 22 -4 16 -9 48 -13 72 -5 40 -4 42 20 42 14 0 37 -4 51
-10 15 -5 26 -6 26 -1 0 12 -34 18 -134 27 -48 4 -77 3 -73 -3z"/>
<path d="M2105 1000 c-55 -4 -156 -8 -224 -9 -108 -1 -122 -3 -117 -17 3 -9 6
-24 6 -34 0 -15 5 -16 46 -9 25 5 62 13 83 19 20 5 95 17 168 25 129 16 221
34 163 32 -14 0 -70 -4 -125 -7z"/>
<path d="M732 940 c0 -14 2 -19 5 -12 2 6 2 18 0 25 -3 6 -5 1 -5 -13z"/>
<path d="M1740 951 c0 -6 4 -13 10 -16 6 -3 7 1 4 9 -7 18 -14 21 -14 7z"/>
<path d="M3338 859 c9 -28 18 -46 20 -40 5 14 -17 79 -28 86 -4 3 -1 -18 8
-46z"/>
<path d="M1744 855 c-10 -8 -14 -14 -9 -15 15 0 40 18 34 24 -3 3 -14 -1 -25
-9z"/>
<path d="M2630 850 c-9 -6 -10 -10 -3 -10 6 0 15 5 18 10 8 12 4 12 -15 0z"/>
<path d="M3047 286 c-11 -29 -86 -59 -133 -52 l-42 5 5 -37 c10 -73 -69 -101
-92 -32 l-12 34 -6 -31 c-3 -18 -21 -45 -38 -60 -28 -25 -79 -94 -79 -108 0
-3 101 -5 224 -5 l224 0 20 58 c40 110 51 177 36 217 -5 12 -11 6 -25 -24 -17
-39 -49 -56 -49 -27 0 7 -6 28 -14 46 -9 24 -15 28 -19 16z"/>
<path d="M2781 224 c0 -11 3 -14 6 -6 3 7 2 16 -1 19 -3 4 -6 -2 -5 -13z"/>
<path d="M1661 129 c-1 -76 7 -129 21 -129 5 0 6 5 3 10 -4 6 -10 50 -14 98
l-8 87 -2 -66z"/>
<path d="M2446 125 c-9 -19 -26 -39 -36 -45 -17 -9 -50 -58 -50 -75 0 -3 32
-5 70 -5 l70 0 -16 25 c-11 17 -15 41 -12 80 1 30 0 55 -3 55 -4 0 -14 -16
-23 -35z"/>
<path d="M2012 105 c-15 -31 -37 -55 -69 -75 l-47 -30 32 0 c21 0 32 5 32 14
0 8 11 23 24 34 22 17 61 90 53 98 -2 2 -13 -17 -25 -41z"/>
<path d="M2261 103 c-2 -20 -42 -52 -57 -46 -8 3 -14 0 -14 -6 0 -6 -9 -20
-20 -31 l-20 -20 65 0 c65 0 65 0 64 28 -2 31 -16 93 -18 75z"/>
<path d="M2126 85 c-3 -8 -1 -15 4 -15 6 0 10 7 10 15 0 8 -2 15 -4 15 -2 0
-6 -7 -10 -15z"/>
<path d="M2566 32 c-8 -24 -3 -37 12 -31 4 2 5 15 2 29 l-6 25 -8 -23z"/>
<path d="M2011 14 c0 -11 3 -14 6 -6 3 7 2 16 -1 19 -3 4 -6 -2 -5 -13z"/>
<path d="M1728 3 c6 -2 18 -2 25 0 6 3 1 5 -13 5 -14 0 -19 -2 -12 -5z"/>
<path d="M1788 3 c7 -3 16 -2 19 1 4 3 -2 6 -13 5 -11 0 -14 -3 -6 -6z"/>
</g>
</svg>
